<svg xmlns="http://www.w3.org/2000/svg" width="378" height="378" fill="none"><path fill="#6a727f" d="M188.986 377.971c104.373 0 188.985-84.612 188.985-188.985C377.971 84.612 293.359 0 188.986 0 84.612 0 0 84.612 0 188.986c0 104.373 84.612 188.985 188.986 188.985Z"/><path fill="#fff" fill-rule="evenodd" d="M315 130.534v.002c0 13.45-4.507 26.453-12.608 36.969a60.47 60.47 0 0 1-5.202 5.913v112.573c0 11.971-9.733 21.711-21.7 21.711H103.507c-11.965-.001-21.698-9.739-21.698-21.711V173.418A60.637 60.637 0 0 1 64 130.534l.001-.002C64.001 97.152 91.137 70 124.492 70h130.01c33.356 0 60.492 27.156 60.498 60.532v.002Z" clip-rule="evenodd"/><path fill="#6a727f" d="M139 148c-11.037 0-20 8.969-20 20 0 11.02 8.969 20 20 20 11.02 0 20-8.985 20-20 0-11.026-8.985-20-20-20ZM238.997 148C227.984 148 219 156.969 219 168c0 11.02 8.989 20 19.997 20 11.03 0 20.003-8.985 20.003-20 .011-11.026-8.973-20-20.003-20ZM228.833 210.241c-.93-4.668-5.753-8.241-11.509-8.241h-55.576c-5.771 0-10.604 3.59-11.524 8.271l-.224.003.072 1.574-.012.174.01.056c.171 18.721 17.823 33.922 39.462 33.922 21.712 0 39.421-15.302 39.468-34.117l-.002-1.637h-.165v-.005Z"/></svg>