<svg xmlns="http://www.w3.org/2000/svg" width="516" height="126" fill="none"><path fill="#212222" d="M45.387 125.828c-7.363 0-13.748-1.839-19.155-5.518-5.408-3.793-9.032-8.793-10.873-15l1.899-3.103v14.483c0 2.758-.748 4.942-2.244 6.551-1.496 1.494-3.566 2.242-6.213 2.242-2.76 0-4.89-.748-6.385-2.242C.92 121.632.173 119.448.173 116.69V10.31c0-2.873.747-5.057 2.243-6.551C3.912 2.264 6.04 1.517 8.801 1.517c2.762 0 4.89.747 6.386 2.242 1.61 1.494 2.416 3.678 2.416 6.551v48.276h-2.071c1.84-6.092 5.465-10.92 10.872-14.483 5.407-3.678 11.735-5.517 18.983-5.517 7.594 0 14.151 1.782 19.674 5.345 5.522 3.563 9.78 8.563 12.77 15 3.107 6.437 4.66 14.196 4.66 23.276 0 8.85-1.553 16.61-4.66 23.276-2.99 6.551-7.305 11.609-12.943 15.172-5.522 3.448-12.022 5.173-19.5 5.173Zm-4.314-13.449c4.832 0 9.031-1.149 12.598-3.448 3.566-2.299 6.328-5.69 8.284-10.172 1.955-4.483 2.933-10 2.933-16.552 0-9.885-2.186-17.356-6.558-22.414-4.256-5.058-10.009-7.586-17.257-7.586-4.717 0-8.916 1.149-12.598 3.448-3.567 2.184-6.328 5.517-8.284 10-1.956 4.483-2.933 10-2.933 16.552 0 9.77 2.186 17.241 6.557 22.414 4.372 5.172 10.125 7.758 17.258 7.758ZM105.758 125.483c-2.876 0-5.063-.748-6.558-2.242-1.496-1.609-2.244-3.793-2.244-6.551V47.724c0-2.873.748-5.058 2.244-6.552 1.495-1.494 3.566-2.241 6.212-2.241 2.762 0 4.833.747 6.213 2.241 1.495 1.494 2.244 3.679 2.244 6.552V60.31h-1.726c1.84-6.896 5.235-12.126 10.182-15.69 4.947-3.562 11.275-5.631 18.983-6.206 2.071-.115 3.682.402 4.832 1.551 1.266 1.15 1.956 2.932 2.071 5.345.23 2.414-.287 4.368-1.553 5.862-1.266 1.38-3.221 2.184-5.868 2.414l-3.279.345c-7.478.69-13.173 3.046-17.085 7.069-3.911 4.023-5.867 9.54-5.867 16.552v39.138c0 2.758-.748 4.942-2.244 6.551-1.38 1.494-3.566 2.242-6.557 2.242ZM194.498 125.828c-9.204 0-17.142-1.725-23.816-5.173-6.558-3.563-11.677-8.563-15.359-15-3.566-6.552-5.35-14.31-5.35-23.276 0-8.735 1.784-16.379 5.35-22.93 3.567-6.552 8.456-11.667 14.669-15.346 6.213-3.678 13.288-5.517 21.227-5.517 5.867 0 11.102.977 15.704 2.931 4.603 1.839 8.514 4.598 11.735 8.276 3.337 3.563 5.811 7.931 7.421 13.104 1.726 5.172 2.588 10.976 2.588 17.413 0 1.955-.574 3.449-1.725 4.483-1.151.92-2.876 1.38-5.178 1.38h-57.985v-10.69h53.153l-2.933 2.414c0-5.748-.863-10.632-2.589-14.656-1.61-4.023-4.084-7.069-7.421-9.138-3.221-2.183-7.248-3.275-12.08-3.275-5.407 0-10.009 1.264-13.806 3.793-3.681 2.528-6.5 6.034-8.456 10.517-1.956 4.483-2.934 9.713-2.934 15.69v1.034c0 10.115 2.359 17.759 7.075 22.931 4.833 5.058 11.793 7.586 20.882 7.586 3.452 0 7.076-.459 10.872-1.379a35.9 35.9 0 0 0 11.045-4.655c1.956-1.149 3.682-1.667 5.177-1.552 1.611.115 2.877.632 3.797 1.552 1.036.92 1.669 2.069 1.898 3.448.231 1.379 0 2.816-.69 4.31-.69 1.38-1.898 2.644-3.624 3.794-3.911 2.644-8.456 4.655-13.633 6.034-5.178 1.265-10.182 1.897-15.014 1.897ZM269.414 125.828c-5.867 0-11.159-1.15-15.877-3.449-4.601-2.299-8.226-5.402-10.872-9.31-2.646-3.908-3.969-8.334-3.969-13.276 0-6.207 1.553-11.092 4.659-14.655 3.221-3.678 8.456-6.265 15.705-7.759 7.363-1.61 17.257-2.413 29.683-2.413h8.111v10.69h-7.939c-8.283 0-14.841.402-19.673 1.206-4.833.804-8.284 2.184-10.355 4.138-1.956 1.839-2.934 4.425-2.934 7.759 0 4.368 1.496 7.931 4.487 10.689 2.992 2.644 7.134 3.966 12.426 3.966 4.256 0 7.996-.977 11.217-2.931 3.221-2.069 5.753-4.828 7.593-8.276 1.957-3.448 2.934-7.414 2.934-11.897V70.483c0-6.552-1.38-11.265-4.142-14.138-2.761-2.873-7.306-4.31-13.633-4.31-3.682 0-7.536.459-11.563 1.379-3.911.92-7.996 2.471-12.253 4.655-1.956.92-3.624 1.207-5.004.862-1.381-.345-2.474-1.092-3.279-2.241-.805-1.265-1.266-2.587-1.381-3.966 0-1.494.345-2.93 1.036-4.31.805-1.38 2.128-2.414 3.969-3.104 5.062-2.413 10.067-4.138 15.014-5.172 4.947-1.035 9.606-1.552 13.979-1.552 7.708 0 14.036 1.207 18.983 3.62 5.062 2.415 8.801 6.093 11.217 11.035 2.416 4.943 3.624 11.322 3.624 19.138v44.311c0 2.758-.69 4.942-2.071 6.551-1.38 1.494-3.393 2.242-6.04 2.242-2.53 0-4.544-.748-6.04-2.242-1.495-1.609-2.243-3.793-2.243-6.551v-11.207h1.553c-.921 4.252-2.647 7.931-5.177 11.034-2.416 2.989-5.465 5.287-9.147 6.897-3.682 1.609-7.881 2.414-12.598 2.414ZM362.106 125.828c-7.363 0-13.864-1.725-19.501-5.173-5.522-3.563-9.837-8.621-12.943-15.172-3.106-6.667-4.66-14.425-4.66-23.276 0-9.08 1.554-16.839 4.66-23.276 3.106-6.437 7.421-11.437 12.943-15 5.637-3.563 12.138-5.345 19.501-5.345 7.363 0 13.691 1.839 18.983 5.517 5.408 3.563 9.032 8.391 10.873 14.483h-1.899V10.31c0-2.873.748-5.057 2.244-6.551 1.495-1.495 3.624-2.242 6.385-2.242 2.761 0 4.89.747 6.385 2.242 1.611 1.494 2.416 3.678 2.416 6.551v106.38c0 2.758-.748 4.942-2.243 6.551-1.496 1.494-3.624 2.242-6.385 2.242-2.762 0-4.89-.748-6.386-2.242-1.495-1.609-2.243-3.793-2.243-6.551v-15.173l1.898 3.793c-1.84 6.207-5.464 11.207-10.872 15-5.292 3.679-11.677 5.518-19.156 5.518Zm4.487-13.449c4.717 0 8.859-1.149 12.425-3.448 3.567-2.299 6.328-5.69 8.284-10.172 2.071-4.483 3.106-10 3.106-16.552 0-9.885-2.185-17.356-6.557-22.414-4.373-5.058-10.125-7.586-17.258-7.586-4.832 0-9.032 1.149-12.598 3.448-3.566 2.184-6.385 5.517-8.456 10-1.956 4.483-2.934 10-2.934 16.552 0 9.77 2.186 17.241 6.558 22.414 4.372 5.172 10.182 7.758 17.43 7.758ZM432.819 125.483c-2.761 0-4.89-.805-6.386-2.414-1.495-1.724-2.243-4.08-2.243-7.069V48.759c0-2.99.748-5.288 2.243-6.897 1.496-1.61 3.625-2.414 6.386-2.414s4.89.805 6.385 2.414c1.611 1.61 2.416 3.908 2.416 6.897V116c0 2.989-.748 5.345-2.243 7.069-1.496 1.609-3.682 2.414-6.558 2.414Zm0-103.966c-3.452 0-6.155-.862-8.111-2.586-1.841-1.724-2.761-4.138-2.761-7.241 0-3.219.92-5.633 2.761-7.242 1.956-1.724 4.659-2.586 8.111-2.586 3.451 0 6.098.862 7.938 2.586 1.956 1.61 2.934 4.023 2.934 7.242 0 3.103-.978 5.517-2.934 7.241-1.84 1.724-4.487 2.586-7.938 2.586ZM499.473 125.828c-6.903 0-12.712-1.207-17.43-3.621-4.717-2.414-8.226-5.977-10.527-10.69-2.301-4.713-3.451-10.459-3.451-17.241v-40.69H457.71c-2.301 0-4.084-.575-5.35-1.724-1.266-1.265-1.898-2.931-1.898-5 0-2.184.632-3.85 1.898-5s3.049-1.724 5.35-1.724h10.355V22.379c0-2.873.748-5.057 2.243-6.551 1.611-1.495 3.797-2.242 6.558-2.242 2.761 0 4.89.747 6.385 2.242 1.496 1.494 2.244 3.678 2.244 6.551v17.759h20.191c2.301 0 4.084.575 5.35 1.724 1.266 1.15 1.898 2.816 1.898 5 0 2.069-.632 3.735-1.898 5-1.266 1.15-3.049 1.724-5.35 1.724h-20.191v39.31c0 6.093 1.266 10.69 3.796 13.794 2.647 3.103 6.903 4.655 12.771 4.655 2.071 0 3.854-.173 5.35-.517 1.611-.46 2.934-.748 3.969-.862 1.266 0 2.301.459 3.106 1.379.805.804 1.208 2.414 1.208 4.827 0 1.725-.345 3.334-1.035 4.828-.576 1.494-1.668 2.472-3.279 2.931-1.381.46-3.279.862-5.695 1.207-2.301.459-4.372.69-6.213.69Z"/><path fill="#FF4520" d="M423.181 20.177c2.233 1.97 5.322 2.954 9.265 2.954 3.943 0 6.966-.985 9.069-2.954 2.235-1.97 3.352-4.727 3.352-8.273 0-3.676-1.117-6.434-3.352-8.272-2.103-1.97-5.126-2.955-9.069-2.955-3.943 0-7.032.985-9.265 2.955-2.104 1.838-3.155 4.596-3.155 8.272 0 3.546 1.051 6.303 3.155 8.273Z"/></svg>